<svg version="1.1" id="Layer_1" xmlns="http://www.w3.org/2000/svg" xmlns:xlink="http://www.w3.org/1999/xlink" x="0px" y="0px"
	 width="100%" viewBox="0 0 2000 1500" enable-background="new 0 0 2000 1500" xml:space="preserve">
<path fill="#61777F" opacity="1.000000" stroke="none" 
	d="
M1357.000000,1501.000000 
	C904.666809,1501.000000 452.833588,1501.000000 1.000303,1501.000000 
	C1.000202,1001.000305 1.000202,501.000580 1.000101,1.000638 
	C667.666199,1.000426 1334.332397,1.000426 2000.998901,1.000213 
	C2000.999268,500.999359 2000.999268,1000.998718 2000.999634,1500.999023 
	C1786.500000,1501.000000 1572.000000,1501.000000 1357.000000,1501.000000 
M1100.711060,959.500183 
	C1100.140869,887.878601 1099.599121,816.256836 1098.966675,744.635803 
	C1098.881592,735.006958 1098.252808,725.384277 1098.026123,715.755188 
	C1097.626953,698.794556 1097.391602,681.829956 1096.990723,664.869385 
	C1096.806519,657.077698 1096.376953,649.291809 1096.118652,641.501343 
	C1096.103149,641.028992 1096.620483,640.538940 1097.182617,639.533203 
	C1097.672974,640.736023 1097.941406,641.295227 1098.133301,641.879639 
	C1107.445435,670.239441 1116.767456,698.596008 1126.053711,726.964294 
	C1146.105347,788.220215 1166.142944,849.480713 1186.177124,910.742249 
	C1201.846802,958.657471 1217.538574,1006.565674 1233.089722,1054.519287 
	C1234.194458,1057.926025 1235.657227,1059.194824 1239.336914,1059.096558 
	C1249.662598,1058.820679 1260.000244,1059.000244 1270.333252,1059.000244 
	C1276.103149,1059.000244 1281.873047,1059.000366 1287.623291,1059.000366 
	C1287.623291,853.328674 1287.623291,648.285156 1287.623291,443.261047 
	C1266.310791,443.261047 1245.376587,443.261047 1223.958862,443.261047 
	C1223.958862,444.805573 1223.947144,446.093903 1223.960571,447.381958 
	C1224.968506,543.604187 1221.768188,639.854736 1225.985718,736.057007 
	C1226.895386,756.806396 1227.231201,777.580383 1228.041504,798.334839 
	C1228.590942,812.405457 1229.602173,826.457703 1230.216309,840.526428 
	C1230.480225,846.572388 1230.260498,852.639465 1230.260498,858.935425 
	C1229.858643,858.227539 1229.447144,857.709229 1229.246216,857.119202 
	C1214.236816,813.058411 1199.233765,768.995361 1184.252319,724.925049 
	C1152.762939,632.293518 1121.269897,539.663147 1089.867920,447.002014 
	C1088.768066,443.756348 1087.168579,442.866180 1083.830200,442.911255 
	C1068.833618,443.113739 1053.832520,442.999512 1038.833130,442.999512 
	C1037.254517,442.999512 1035.675903,442.999542 1034.209106,442.999542 
	C1034.209106,648.735168 1034.209106,853.658325 1034.209106,1058.690430 
	C1056.415894,1058.690430 1078.313965,1058.690430 1100.711060,1058.690430 
	C1100.711060,1025.755493 1100.711060,993.127869 1100.711060,959.500183 
M712.999268,523.500000 
	C712.999268,701.888611 712.999268,880.277222 712.999268,1059.000610 
	C726.796021,1059.000610 739.934753,1059.090088 753.071899,1058.982910 
	C786.385742,1058.711060 819.748047,1059.373779 853.000183,1057.774658 
	C897.327698,1055.643066 926.964172,1032.024902 940.949280,989.961731 
	C948.402100,967.545715 951.646729,944.327209 953.305542,920.839661 
	C956.072266,881.664307 956.122253,842.551575 948.737610,803.836365 
	C946.446655,791.825745 942.721252,779.942627 938.322815,768.512939 
	C930.922913,749.283752 918.790588,733.813904 898.769714,725.732300 
	C899.462830,724.992004 899.733215,724.528625 900.136719,724.297180 
	C919.699646,713.076050 930.645020,695.708740 936.221069,674.326538 
	C941.807129,652.906128 943.811340,631.066528 944.391418,609.048096 
	C945.248230,576.522644 944.864563,544.087341 936.964111,512.218384 
	C930.007935,484.158478 914.958740,462.835907 887.065796,452.332794 
	C866.638550,444.640930 845.237488,443.044983 823.658569,443.013306 
	C788.499817,442.961731 753.341003,442.996216 718.182190,443.009369 
	C716.573425,443.009979 714.964661,443.157867 712.999268,443.254730 
	C712.999268,469.909454 712.999268,496.204742 712.999268,523.500000 
M959.499939,312.123962 
	C1050.261597,312.123962 1141.023193,312.123962 1232.442383,312.123962 
	C1232.442383,347.911438 1232.442383,383.138672 1232.442383,418.492035 
	C1251.307129,418.492035 1269.510986,418.492035 1287.757568,418.492035 
	C1287.757568,364.516846 1287.757568,310.923737 1287.757568,257.041931 
	C1096.175049,257.041931 904.840332,257.041931 713.317871,257.041931 
	C713.317871,311.018890 713.317871,364.724640 713.317871,418.626282 
	C731.723083,418.626282 749.804688,418.626282 768.541382,418.626282 
	C768.541382,383.157013 768.541382,347.927551 768.541382,312.123962 
	C832.296631,312.123962 895.398254,312.123962 959.499939,312.123962 
M1153.500000,1189.876221 
	C1025.413818,1189.876221 897.327698,1189.876221 768.390747,1189.876221 
	C768.390747,1154.015991 768.390747,1118.694336 768.390747,1083.497070 
	C749.459778,1083.497070 731.382751,1083.497070 713.401611,1083.497070 
	C713.401611,1137.579102 713.401611,1191.289062 713.401611,1244.979370 
	C905.030579,1244.979370 1096.252563,1244.979370 1287.693848,1244.979370 
	C1287.693848,1191.004517 1287.693848,1137.297729 1287.693848,1083.360352 
	C1269.298584,1083.360352 1251.214844,1083.360352 1232.479980,1083.360352 
	C1232.479980,1118.818970 1232.479980,1154.051270 1232.479980,1189.876221 
	C1206.055786,1189.876221 1180.277832,1189.876221 1153.500000,1189.876221 
z"/>
<path fill="#FFFFFF" opacity="1.000000" stroke="none" 
	d="
M1100.711060,960.000244 
	C1100.711060,993.127869 1100.711060,1025.755493 1100.711060,1058.690430 
	C1078.313965,1058.690430 1056.415894,1058.690430 1034.209106,1058.690430 
	C1034.209106,853.658325 1034.209106,648.735168 1034.209106,442.999542 
	C1035.675903,442.999542 1037.254517,442.999512 1038.833130,442.999512 
	C1053.832520,442.999512 1068.833618,443.113739 1083.830200,442.911255 
	C1087.168579,442.866180 1088.768066,443.756348 1089.867920,447.002014 
	C1121.269897,539.663147 1152.762939,632.293518 1184.252319,724.925049 
	C1199.233765,768.995361 1214.236816,813.058411 1229.246216,857.119202 
	C1229.447144,857.709229 1229.858643,858.227539 1230.260498,858.935425 
	C1230.260498,852.639465 1230.480225,846.572388 1230.216309,840.526428 
	C1229.602173,826.457703 1228.590942,812.405457 1228.041504,798.334839 
	C1227.231201,777.580383 1226.895386,756.806396 1225.985718,736.057007 
	C1221.768188,639.854736 1224.968506,543.604187 1223.960571,447.381958 
	C1223.947144,446.093903 1223.958862,444.805573 1223.958862,443.261047 
	C1245.376587,443.261047 1266.310791,443.261047 1287.623291,443.261047 
	C1287.623291,648.285156 1287.623291,853.328674 1287.623291,1059.000366 
	C1281.873047,1059.000366 1276.103149,1059.000244 1270.333252,1059.000244 
	C1260.000244,1059.000244 1249.662598,1058.820679 1239.336914,1059.096558 
	C1235.657227,1059.194824 1234.194458,1057.926025 1233.089722,1054.519287 
	C1217.538574,1006.565674 1201.846802,958.657471 1186.177124,910.742249 
	C1166.142944,849.480713 1146.105347,788.220215 1126.053711,726.964294 
	C1116.767456,698.596008 1107.445435,670.239441 1098.133301,641.879639 
	C1097.941406,641.295227 1097.672974,640.736023 1097.182617,639.533203 
	C1096.620483,640.538940 1096.103149,641.028992 1096.118652,641.501343 
	C1096.376953,649.291809 1096.806519,657.077698 1096.990723,664.869385 
	C1097.391602,681.829956 1097.626953,698.794556 1098.026123,715.755188 
	C1098.252808,725.384277 1098.881592,735.006958 1098.966675,744.635803 
	C1099.599121,816.256836 1100.140869,887.878601 1100.711060,960.000244 
z"/>
<path fill="#FFFFFF" opacity="1.000000" stroke="none" 
	d="
M712.999268,523.000000 
	C712.999268,496.204742 712.999268,469.909454 712.999268,443.254730 
	C714.964661,443.157867 716.573425,443.009979 718.182190,443.009369 
	C753.341003,442.996216 788.499817,442.961731 823.658569,443.013306 
	C845.237488,443.044983 866.638550,444.640930 887.065796,452.332794 
	C914.958740,462.835907 930.007935,484.158478 936.964111,512.218384 
	C944.864563,544.087341 945.248230,576.522644 944.391418,609.048096 
	C943.811340,631.066528 941.807129,652.906128 936.221069,674.326538 
	C930.645020,695.708740 919.699646,713.076050 900.136719,724.297180 
	C899.733215,724.528625 899.462830,724.992004 898.769714,725.732300 
	C918.790588,733.813904 930.922913,749.283752 938.322815,768.512939 
	C942.721252,779.942627 946.446655,791.825745 948.737610,803.836365 
	C956.122253,842.551575 956.072266,881.664307 953.305542,920.839661 
	C951.646729,944.327209 948.402100,967.545715 940.949280,989.961731 
	C926.964172,1032.024902 897.327698,1055.643066 853.000183,1057.774658 
	C819.748047,1059.373779 786.385742,1058.711060 753.071899,1058.982910 
	C739.934753,1059.090088 726.796021,1059.000610 712.999268,1059.000610 
	C712.999268,880.277222 712.999268,701.888611 712.999268,523.000000 
M877.489197,798.989075 
	C876.012085,793.192993 874.864075,787.288208 872.992981,781.622253 
	C868.346069,767.549988 858.651062,758.148865 843.859924,757.107056 
	C824.808411,755.765137 805.618958,756.380310 786.488647,756.179077 
	C786.233582,756.176392 785.974854,756.522034 785.607178,756.783875 
	C785.607178,837.772156 785.607178,918.823975 785.607178,999.849670 
	C786.320557,1000.133972 786.772827,1000.474182 787.221985,1000.470154 
	C804.540283,1000.314148 821.894226,1000.742310 839.164307,999.735596 
	C851.494934,999.016785 861.986511,993.324707 868.157410,981.980042 
	C870.992432,976.768127 873.922913,971.159485 874.811646,965.421204 
	C877.556274,947.698242 880.554016,929.873291 881.243408,912.002625 
	C882.687378,874.573975 883.616089,837.060364 877.489197,798.989075 
M865.989563,679.377319 
	C867.678284,670.751465 870.468323,662.174072 870.849792,653.490784 
	C872.011169,627.051025 872.869873,600.563782 872.583252,574.108643 
	C872.431091,560.067688 870.528809,545.887451 867.851318,532.073486 
	C864.740234,516.022644 854.658569,505.229401 837.800293,503.862030 
	C820.764099,502.480194 803.591492,502.776947 786.477966,502.367950 
	C786.234619,502.362152 785.982117,502.741333 785.597717,503.050323 
	C785.597717,568.505310 785.597717,634.059753 785.597717,699.589600 
	C786.309326,699.849365 786.762268,700.160767 787.213501,700.158325 
	C803.698486,700.071228 820.198181,700.346130 836.663513,699.720276 
	C850.087219,699.210022 860.802002,693.685669 865.989563,679.377319 
z"/>
<path fill="#FFFFFF" opacity="1.000000" stroke="none" 
	d="
M958.999878,312.123962 
	C895.398254,312.123962 832.296631,312.123962 768.541382,312.123962 
	C768.541382,347.927551 768.541382,383.157013 768.541382,418.626282 
	C749.804688,418.626282 731.723083,418.626282 713.317871,418.626282 
	C713.317871,364.724640 713.317871,311.018890 713.317871,257.041931 
	C904.840332,257.041931 1096.175049,257.041931 1287.757568,257.041931 
	C1287.757568,310.923737 1287.757568,364.516846 1287.757568,418.492035 
	C1269.510986,418.492035 1251.307129,418.492035 1232.442383,418.492035 
	C1232.442383,383.138672 1232.442383,347.911438 1232.442383,312.123962 
	C1141.023193,312.123962 1050.261597,312.123962 958.999878,312.123962 
z"/>
<path fill="#FFFFFF" opacity="1.000000" stroke="none" 
	d="
M1154.000000,1189.876221 
	C1180.277832,1189.876221 1206.055786,1189.876221 1232.479980,1189.876221 
	C1232.479980,1154.051270 1232.479980,1118.818970 1232.479980,1083.360352 
	C1251.214844,1083.360352 1269.298584,1083.360352 1287.693848,1083.360352 
	C1287.693848,1137.297729 1287.693848,1191.004517 1287.693848,1244.979370 
	C1096.252563,1244.979370 905.030579,1244.979370 713.401611,1244.979370 
	C713.401611,1191.289062 713.401611,1137.579102 713.401611,1083.497070 
	C731.382751,1083.497070 749.459778,1083.497070 768.390747,1083.497070 
	C768.390747,1118.694336 768.390747,1154.015991 768.390747,1189.876221 
	C897.327698,1189.876221 1025.413818,1189.876221 1154.000000,1189.876221 
z"/>
<path fill="#627880" opacity="1.000000" stroke="none" 
	d="
M877.593201,799.404907 
	C883.616089,837.060364 882.687378,874.573975 881.243408,912.002625 
	C880.554016,929.873291 877.556274,947.698242 874.811646,965.421204 
	C873.922913,971.159485 870.992432,976.768127 868.157410,981.980042 
	C861.986511,993.324707 851.494934,999.016785 839.164307,999.735596 
	C821.894226,1000.742310 804.540283,1000.314148 787.221985,1000.470154 
	C786.772827,1000.474182 786.320557,1000.133972 785.607178,999.849670 
	C785.607178,918.823975 785.607178,837.772156 785.607178,756.783875 
	C785.974854,756.522034 786.233582,756.176392 786.488647,756.179077 
	C805.618958,756.380310 824.808411,755.765137 843.859924,757.107056 
	C858.651062,758.148865 868.346069,767.549988 872.992981,781.622253 
	C874.864075,787.288208 876.012085,793.192993 877.593201,799.404907 
z"/>
<path fill="#627880" opacity="1.000000" stroke="none" 
	d="
M865.869141,679.744873 
	C860.802002,693.685669 850.087219,699.210022 836.663513,699.720276 
	C820.198181,700.346130 803.698486,700.071228 787.213501,700.158325 
	C786.762268,700.160767 786.309326,699.849365 785.597717,699.589600 
	C785.597717,634.059753 785.597717,568.505310 785.597717,503.050323 
	C785.982117,502.741333 786.234619,502.362152 786.477966,502.367950 
	C803.591492,502.776947 820.764099,502.480194 837.800293,503.862030 
	C854.658569,505.229401 864.740234,516.022644 867.851318,532.073486 
	C870.528809,545.887451 872.431091,560.067688 872.583252,574.108643 
	C872.869873,600.563782 872.011169,627.051025 870.849792,653.490784 
	C870.468323,662.174072 867.678284,670.751465 865.869141,679.744873 
z"/>
</svg>